<svg width="30" height="30" viewBox="0 0 30 30" fill="none" xmlns="http://www.w3.org/2000/svg">
<g clip-path="url(#clip0_36_158)">
<path d="M12.75 7.125C12.75 6.52826 12.9871 5.95597 13.409 5.53401C13.831 5.11205 14.4033 4.875 15 4.875C15.5967 4.875 16.169 5.11205 16.591 5.53401C17.0129 5.95597 17.25 6.52826 17.25 7.125C18.542 7.73591 19.6433 8.68687 20.4361 9.87596C21.2288 11.0651 21.683 12.4475 21.75 13.875V17.25C21.8347 17.9494 22.0824 18.6192 22.4732 19.2054C22.864 19.7916 23.3869 20.2778 24 20.625H6C6.61306 20.2778 7.13604 19.7916 7.52684 19.2054C7.91764 18.6192 8.16534 17.9494 8.25 17.25V13.875C8.31701 12.4475 8.77121 11.0651 9.56394 9.87596C10.3567 8.68687 11.458 7.73591 12.75 7.125Z" stroke="#666666" stroke-width="2" stroke-linecap="round" stroke-linejoin="round"/>
<path d="M11.625 20.625V21.75C11.625 22.6451 11.9806 23.5036 12.6135 24.1365C13.2464 24.7694 14.1049 25.125 15 25.125C15.8951 25.125 16.7536 24.7694 17.3865 24.1365C18.0194 23.5036 18.375 22.6451 18.375 21.75V20.625" stroke="#666666" stroke-width="2" stroke-linecap="round" stroke-linejoin="round"/>
</g>
<defs>
<clipPath id="clip0_36_158">
<rect width="30" height="30" fill="white"/>
</clipPath>
</defs>
</svg>
