<svg width="84" height="20" viewBox="0 0 84 20" fill="none" xmlns="http://www.w3.org/2000/svg">
<path d="M29.7344 5.28125C29.7266 7.14062 30.8984 8.89062 33.1406 9.59375L32.2812 10.9688C30.6562 10.4297 29.4922 9.35156 28.8516 7.96875C28.2188 9.45312 27.0312 10.6328 25.3594 11.2031L24.4844 9.84375C26.7656 9.07031 27.9453 7.19531 27.9375 5.28125V3.9375H29.7344V5.28125ZM26.5938 13.75V12.3594H36.2344V17.3906H34.4844V13.75H26.5938ZM34.4844 11.7188V3.26562H36.2344V11.7188H34.4844ZM50.2344 3.28125V13.9219H48.4688V12.2188H45.5938V10.8438H48.4688V3.28125H50.2344ZM38.2031 8.70312C39.9219 8.69531 42.0547 8.67188 44.1719 8.54688C44.3906 7.23438 44.4531 6.1875 44.4766 5.42188H39.4844V4.03125H46.2188V4.5625C46.2188 5.30469 46.2188 6.61719 45.9297 8.40625C46.4219 8.35938 46.9062 8.29688 47.375 8.23438L47.5 9.46875C46.2812 9.67969 45.0234 9.82031 43.7812 9.91406V13.0156H42.0625V10.0156C40.75 10.0781 39.5078 10.0938 38.4219 10.0938L38.2031 8.70312ZM40.2188 17.1094V12.7969H41.9531V15.7031H50.5625V17.1094H40.2188ZM67.75 3.26562V10.4219H66.0156V9.1875H62.6094V7.85938H66.0156V6.46875H62.7891C61.9141 8.625 59.8438 10.0312 56.7188 10.7344L56.1094 9.3125C59.4297 8.61719 61.0859 7.15625 61.3281 5.28125H56.8906V3.875H63.2656C63.2656 4.32031 63.2266 4.74219 63.1641 5.14062H66.0156V3.26562H67.75ZM58.4531 12.3438V10.9688H67.75V14.6875H60.2031V15.8594H68.125V17.25H58.4688V13.3906H66.0156V12.3438H58.4531ZM81.9062 3.26562V17.3906H80.25V3.26562H81.9062ZM69.5 13.375C71.5391 12.1328 72.4375 9.58594 72.4375 7.125V6.1875H69.9844V4.78125H76.3906V6.1875H74.1094V7.125C74.1094 9.50781 74.9609 11.8984 76.9844 13.0625L75.9531 14.3438C74.6484 13.5703 73.7812 12.2266 73.2891 10.6172C72.7891 12.3594 71.8906 13.8438 70.5625 14.6719L69.5 13.375ZM75.3594 9.59375V8.1875H77.3906V3.53125H79.0312V16.7031H77.3906V9.59375H75.3594Z" fill="#32810D"/>
<g clip-path="url(#clip0_36_117)">
<path d="M3.33325 4.16683C3.33325 3.94582 3.42105 3.73385 3.57733 3.57757C3.73361 3.42129 3.94557 3.3335 4.16659 3.3335H7.49992C7.72093 3.3335 7.93289 3.42129 8.08917 3.57757C8.24545 3.73385 8.33325 3.94582 8.33325 4.16683V7.50016C8.33325 7.72118 8.24545 7.93314 8.08917 8.08942C7.93289 8.2457 7.72093 8.3335 7.49992 8.3335H4.16659C3.94557 8.3335 3.73361 8.2457 3.57733 8.08942C3.42105 7.93314 3.33325 7.72118 3.33325 7.50016V4.16683Z" stroke="#32810D" stroke-width="1.66667" stroke-linecap="round" stroke-linejoin="round"/>
<path d="M11.6667 4.16683C11.6667 3.94582 11.7545 3.73385 11.9108 3.57757C12.0671 3.42129 12.2791 3.3335 12.5001 3.3335H15.8334C16.0544 3.3335 16.2664 3.42129 16.4227 3.57757C16.579 3.73385 16.6667 3.94582 16.6667 4.16683V7.50016C16.6667 7.72118 16.579 7.93314 16.4227 8.08942C16.2664 8.2457 16.0544 8.3335 15.8334 8.3335H12.5001C12.2791 8.3335 12.0671 8.2457 11.9108 8.08942C11.7545 7.93314 11.6667 7.72118 11.6667 7.50016V4.16683Z" stroke="#32810D" stroke-width="1.66667" stroke-linecap="round" stroke-linejoin="round"/>
<path d="M3.33325 12.4998C3.33325 12.2788 3.42105 12.0669 3.57733 11.9106C3.73361 11.7543 3.94557 11.6665 4.16659 11.6665H7.49992C7.72093 11.6665 7.93289 11.7543 8.08917 11.9106C8.24545 12.0669 8.33325 12.2788 8.33325 12.4998V15.8332C8.33325 16.0542 8.24545 16.2661 8.08917 16.4224C7.93289 16.5787 7.72093 16.6665 7.49992 16.6665H4.16659C3.94557 16.6665 3.73361 16.5787 3.57733 16.4224C3.42105 16.2661 3.33325 16.0542 3.33325 15.8332V12.4998Z" stroke="#32810D" stroke-width="1.66667" stroke-linecap="round" stroke-linejoin="round"/>
<path d="M11.6667 11.6665H14.1667" stroke="#32810D" stroke-width="1.66667" stroke-linecap="round" stroke-linejoin="round"/>
<path d="M16.6667 11.6665V11.6748" stroke="#32810D" stroke-width="1.66667" stroke-linecap="round" stroke-linejoin="round"/>
<path d="M11.6667 11.6665V14.1665" stroke="#32810D" stroke-width="1.66667" stroke-linecap="round" stroke-linejoin="round"/>
<path d="M11.6667 16.6665H14.1667" stroke="#32810D" stroke-width="1.66667" stroke-linecap="round" stroke-linejoin="round"/>
<path d="M14.1667 14.1665H16.6667" stroke="#32810D" stroke-width="1.66667" stroke-linecap="round" stroke-linejoin="round"/>
<path d="M16.6667 14.1665V16.6665" stroke="#32810D" stroke-width="1.66667" stroke-linecap="round" stroke-linejoin="round"/>
</g>
<defs>
<clipPath id="clip0_36_117">
<rect width="20" height="20" fill="white"/>
</clipPath>
</defs>
</svg>
