<svg width="32" height="32" viewBox="0 0 32 32" fill="none" xmlns="http://www.w3.org/2000/svg">
<g clip-path="url(#clip0_36_136)">
<path d="M22.6666 10.6668V6.66683C22.6666 6.31321 22.5261 5.97407 22.2761 5.72402C22.026 5.47397 21.6869 5.3335 21.3333 5.3335H7.99992C7.29267 5.3335 6.6144 5.61445 6.1143 6.11454C5.6142 6.61464 5.33325 7.29292 5.33325 8.00016M5.33325 8.00016C5.33325 8.70741 5.6142 9.38568 6.1143 9.88578C6.6144 10.3859 7.29267 10.6668 7.99992 10.6668H23.9999C24.3535 10.6668 24.6927 10.8073 24.9427 11.0574C25.1928 11.3074 25.3333 11.6465 25.3333 12.0002V16.0002M5.33325 8.00016V24.0002C5.33325 24.7074 5.6142 25.3857 6.1143 25.8858C6.6144 26.3859 7.29267 26.6668 7.99992 26.6668H23.9999C24.3535 26.6668 24.6927 26.5264 24.9427 26.2763C25.1928 26.0263 25.3333 25.6871 25.3333 25.3335V21.3335" stroke="#32810D" stroke-width="2.13333" stroke-linecap="round" stroke-linejoin="round"/>
<path d="M26.6667 16V21.3333H21.3334C20.6262 21.3333 19.9479 21.0524 19.4478 20.5523C18.9477 20.0522 18.6667 19.3739 18.6667 18.6667C18.6667 17.9594 18.9477 17.2811 19.4478 16.781C19.9479 16.281 20.6262 16 21.3334 16H26.6667Z" stroke="#32810D" stroke-width="2.13333" stroke-linecap="round" stroke-linejoin="round"/>
</g>
<defs>
<clipPath id="clip0_36_136">
<rect width="32" height="32" fill="white"/>
</clipPath>
</defs>
</svg>
