<svg width="26" height="30" viewBox="0 0 28 32" fill="none" xmlns="http://www.w3.org/2000/svg">
<path d="M14 16.0001C14.9957 16.0001 15.848 15.6868 16.5571 15.0601C17.2661 14.4334 17.6207 13.6801 17.6207 12.8001C17.6207 11.9201 17.2661 11.1668 16.5571 10.5401C15.848 9.91343 14.9957 9.6001 14 9.6001C13.0043 9.6001 12.1519 9.91343 11.4429 10.5401C10.7338 11.1668 10.3793 11.9201 10.3793 12.8001C10.3793 13.6801 10.7338 14.4334 11.4429 15.0601C12.1519 15.6868 13.0043 16.0001 14 16.0001ZM14 28C17.681 25.0133 20.7198 22.0601 22.5 19.6201C24.2802 17.1801 25.5 14.8933 25.5 13C25.5 10.0933 24.2888 7.35333 22.1918 5.5C20.0948 3.64667 17.0474 3 14 3C10.9526 3 8.09698 3.64667 6 5.5C3.90302 7.35333 2.5 10.2134 2.5 13.1201C2.5 15 3.71983 17.1801 5.5 19.6201C7.28017 22.0601 10.319 25.0133 14 28ZM14 31.5C9.14223 27.8467 6.2834 24.6333 3.8847 21.5C1.48599 18.3667 0 15.7868 0 13.1201C0 9.1201 1.43319 5.93333 4.34483 3.56C7.25647 1.18667 10.1681 0.5 14 0.5C17.8319 0.5 20.7435 1.18667 23.6552 3.56C26.5668 5.93333 28 8.8001 28 12.8001C28 15.4668 27.0194 17.8667 24.6207 21C22.222 24.1333 18.8577 27.8467 14 31.5Z" fill="#32810D"/>
</svg>
